Metropolis-Bold.ufo
<glyph name="exclam" format="1">
  <advance width="329"/>
  <unicode hex="0021"/>
  <outline>
    <contour>
      <point x="232" y="274" type="line"/>
      <point x="274" y="687" type="line"/>
      <point x="59" y="687" type="line"/>
      <point x="102" y="274" type="line"/>
    </contour>
    <component base="period" xOffset="7"/>
  </outline>
</glyph>
<glyph name="dollar" format="1">
  <advance width="646"/>
  <unicode hex="0024"/>
  <outline>
    <contour>
      <point x="374" y="-74" type="line"/>
      <point x="374" y="759" type="line"/>
      <point x="264" y="759" type="line"/>
      <point x="264" y="-74" type="line"/>
    </contour>
    <component base="S"/>
  </outline>
</glyph>
<glyph name="ampersand" format="1">
  <advance width="685"/>
  <unicode hex="0026"/>
  <outline>
    <contour>
      <point x="436" y="-12"/>
      <point x="553" y="108"/>
      <point x="659" y="307" type="curve"/>
      <point x="525" y="372" type="line"/>
      <point x="473" y="249"/>
      <point x="374" y="129"/>
      <point x="288" y="129" type="curve" smooth="yes"/>
      <point x="246" y="129"/>
      <point x="211" y="158"/>
      <point x="211" y="205" type="curve" smooth="yes"/>
      <point x="211" y="247"/>
      <point x="235" y="274"/>
      <point x="316" y="310" type="curve" smooth="yes"/>
      <point x="491" y="388"/>
      <point x="543" y="431"/>
      <point x="543" y="512" type="curve" smooth="yes"/>
      <point x="543" y="620"/>
      <point x="454" y="696"/>
      <point x="328" y="696" type="curve" smooth="yes"/>
      <point x="215" y="696"/>
      <point x="120" y="612"/>
      <point x="120" y="512" type="curve" smooth="yes"/>
      <point x="120" y="444"/>
      <point x="137" y="413"/>
      <point x="205" y="322" type="curve" smooth="yes"/>
      <point x="252" y="259"/>
      <point x="357" y="145"/>
      <point x="515" y="-22" type="curve"/>
      <point x="668" y="46" type="line"/>
      <point x="497" y="230"/>
      <point x="406" y="331"/>
      <point x="345" y="403" type="curve" smooth="yes"/>
      <point x="304" y="452"/>
      <point x="279" y="471"/>
      <point x="279" y="512" type="curve" smooth="yes"/>
      <point x="279" y="542"/>
      <point x="303" y="567"/>
      <point x="332" y="567" type="curve" smooth="yes"/>
      <point x="362" y="567"/>
      <point x="384" y="544"/>
      <point x="384" y="512" type="curve" smooth="yes"/>
      <point x="384" y="460"/>
      <point x="349" y="450"/>
      <point x="240" y="411" type="curve" smooth="yes"/>
      <point x="79" y="354"/>
      <point x="20" y="301"/>
      <point x="20" y="191" type="curve" smooth="yes"/>
      <point x="20" y="62"/>
      <point x="121" y="-12"/>
      <point x="261" y="-12" type="curve" smooth="yes"/>
    </contour>
  </outline>
</glyph>
<glyph name="parenleft" format="1">
  <advance width="401"/>
  <unicode hex="0028"/>
  <outline>
    <contour>
      <point x="374" y="-67" type="line"/>
      <point x="274" y="36"/>
      <point x="232" y="133"/>
      <point x="232" y="265" type="curve" smooth="yes"/>
      <point x="232" y="398"/>
      <point x="274" y="495"/>
      <point x="374" y="598" type="curve"/>
      <point x="277" y="700" type="line"/>
      <point x="131" y="604"/>
      <point x="43" y="447"/>
      <point x="43" y="265" type="curve" smooth="yes"/>
      <point x="43" y="84"/>
      <point x="131" y="-74"/>
      <point x="277" y="-170" type="curve"/>
    </contour>
  </outline>
</glyph>
<glyph name="parenright" format="1">
  <advance width="401"/>
  <unicode hex="0029"/>
  <outline>
    <contour>
      <point x="270" y="-74"/>
      <point x="358" y="84"/>
      <point x="358" y="265" type="curve" smooth="yes"/>
      <point x="358" y="447"/>
      <point x="270" y="604"/>
      <point x="124" y="700" type="curve"/>
      <point x="27" y="598" type="line"/>
      <point x="127" y="495"/>
      <point x="169" y="398"/>
      <point x="169" y="265" type="curve" smooth="yes"/>
      <point x="169" y="133"/>
      <point x="127" y="36"/>
      <point x="27" y="-67" type="curve"/>
      <point x="124" y="-170" type="line"/>
    </contour>
  </outline>
</glyph>
<glyph name="plus" format="1">
  <advance width="609"/>
  <unicode hex="002B"/>
  <outline>
    <contour>
      <point x="554" y="259" type="line"/>
      <point x="554" y="408" type="line"/>
      <point x="55" y="408" type="line"/>
      <point x="55" y="259" type="line"/>
    </contour>
    <contour>
      <point x="385" y="84" type="line"/>
      <point x="385" y="583" type="line"/>
      <point x="225" y="583" type="line"/>
      <point x="225" y="84" type="line"/>
    </contour>
  </outline>
</glyph>
<glyph name="comma" format="1">
  <advance width="312"/>
  <unicode hex="002C"/>
  <outline>
    <contour>
      <point x="227" y="-89"/>
      <point x="273" y="-8"/>
      <point x="273" y="65" type="curve" smooth="yes"/>
      <point x="273" y="155"/>
      <point x="224" y="219"/>
      <point x="155" y="219" type="curve" smooth="yes"/>
      <point x="94" y="219"/>
      <point x="42" y="166"/>
      <point x="42" y="102" type="curve" smooth="yes"/>
      <point x="42" y="40"/>
      <point x="92" y="-12"/>
      <point x="152" y="-12" type="curve"/>
      <point x="143" y="-45"/>
      <point x="119" y="-80"/>
      <point x="85" y="-107" type="curve"/>
      <point x="148" y="-155" type="line"/>
    </contour>
  </outline>
</glyph>
<glyph name="hyphen" format="1">
  <advance width="360"/>
  <unicode hex="002D"/>
  <outline>
    <contour>
      <point x="322" y="199" type="line"/>
      <point x="322" y="357" type="line"/>
      <point x="38" y="357" type="line"/>
      <point x="38" y="199" type="line"/>
    </contour>
  </outline>
</glyph>
<glyph name="slash" format="1">
  <advance width="493"/>
  <unicode hex="002F"/>
  <outline>
    <contour>
      <point x="171" y="-74" type="line"/>
      <point x="511" y="743" type="line"/>
      <point x="311" y="743" type="line"/>
      <point x="-29" y="-74" type="line"/>
    </contour>
  </outline>
</glyph>
<glyph name="three" format="1">
  <advance width="619"/>
  <unicode hex="0033"/>
  <outline>
    <contour>
      <point x="482" y="-13"/>
      <point x="592" y="74"/>
      <point x="592" y="196" type="curve" smooth="yes"/>
      <point x="592" y="281"/>
      <point x="529" y="336"/>
      <point x="451" y="354" type="curve"/>
      <point x="529" y="377"/>
      <point x="577" y="436"/>
      <point x="577" y="510" type="curve" smooth="yes"/>
      <point x="577" y="618"/>
      <point x="479" y="699"/>
      <point x="309" y="699" type="curve" smooth="yes"/>
      <point x="177" y="699"/>
      <point x="91" y="646"/>
      <point x="31" y="577" type="curve"/>
      <point x="138" y="458" type="line"/>
      <point x="182" y="499"/>
      <point x="231" y="526"/>
      <point x="288" y="526" type="curve" smooth="yes"/>
      <point x="344" y="526"/>
      <point x="379" y="507"/>
      <point x="379" y="473" type="curve" smooth="yes"/>
      <point x="379" y="442"/>
      <point x="350" y="425"/>
      <point x="286" y="425" type="curve" smooth="yes"/>
      <point x="204" y="425" type="line"/>
      <point x="204" y="263" type="line"/>
      <point x="287" y="264" type="line" smooth="yes"/>
      <point x="369" y="265"/>
      <point x="392" y="247"/>
      <point x="392" y="214" type="curve" smooth="yes"/>
      <point x="392" y="183"/>
      <point x="361" y="160"/>
      <point x="299" y="160" type="curve" smooth="yes"/>
      <point x="240" y="160"/>
      <point x="176" y="182"/>
      <point x="125" y="230" type="curve"/>
      <point x="16" y="101" type="line"/>
      <point x="80" y="33"/>
      <point x="179" y="-13"/>
      <point x="310" y="-13" type="curve" smooth="yes"/>
    </contour>
  </outline>
</glyph>
<glyph name="eight" format="1">
  <advance width="636"/>
  <unicode hex="0038"/>
  <outline>
    <contour>
      <point x="476" y="-12"/>
      <point x="611" y="56"/>
      <point x="611" y="187" type="curve" smooth="yes"/>
      <point x="611" y="261"/>
      <point x="566" y="320"/>
      <point x="487" y="355" type="curve"/>
      <point x="554" y="387"/>
      <point x="593" y="437"/>
      <point x="593" y="510" type="curve" smooth="yes"/>
      <point x="593" y="631"/>
      <point x="465" y="699"/>
      <point x="318" y="699" type="curve" smooth="yes"/>
      <point x="174" y="699"/>
      <point x="44" y="634"/>
      <point x="44" y="509" type="curve" smooth="yes"/>
      <point x="44" y="432"/>
      <point x="88" y="384"/>
      <point x="149" y="355" type="curve"/>
      <point x="74" y="323"/>
      <point x="26" y="265"/>
      <point x="26" y="187" type="curve" smooth="yes"/>
      <point x="26" y="57"/>
      <point x="159" y="-12"/>
      <point x="318" y="-12" type="curve" smooth="yes"/>
    </contour>
    <contour>
      <point x="259" y="148"/>
      <point x="222" y="173"/>
      <point x="222" y="210" type="curve" smooth="yes"/>
      <point x="222" y="245"/>
      <point x="267" y="269"/>
      <point x="318" y="272" type="curve"/>
      <point x="369" y="269"/>
      <point x="415" y="245"/>
      <point x="415" y="210" type="curve" smooth="yes"/>
      <point x="415" y="173"/>
      <point x="376" y="148"/>
      <point x="318" y="148" type="curve" smooth="yes"/>
    </contour>
    <contour>
      <point x="272" y="423"/>
      <point x="235" y="448"/>
      <point x="235" y="482" type="curve" smooth="yes"/>
      <point x="235" y="514"/>
      <point x="266" y="540"/>
      <point x="318" y="540" type="curve" smooth="yes"/>
      <point x="370" y="540"/>
      <point x="402" y="514"/>
      <point x="402" y="482" type="curve" smooth="yes"/>
      <point x="402" y="449"/>
      <point x="364" y="423"/>
      <point x="318" y="420" type="curve"/>
    </contour>
  </outline>
</glyph>
<glyph name="question" format="1">
  <advance width="503"/>
  <unicode hex="003F"/>
  <outline>
    <contour>
      <point x="323" y="264" type="line"/>
      <point x="323" y="300" type="line"/>
      <point x="417" y="323"/>
      <point x="484" y="403"/>
      <point x="484" y="494" type="curve" smooth="yes"/>
      <point x="484" y="614"/>
      <point x="387" y="699"/>
      <point x="249" y="699" type="curve" smooth="yes"/>
      <point x="152" y="699"/>
      <point x="68" y="658"/>
      <point x="8" y="596" type="curve"/>
      <point x="114" y="487" type="line"/>
      <point x="139" y="510"/>
      <point x="179" y="526"/>
      <point x="211" y="526" type="curve" smooth="yes"/>
      <point x="256" y="526"/>
      <point x="288" y="505"/>
      <point x="288" y="475" type="curve" smooth="yes"/>
      <point x="288" y="439"/>
      <point x="235" y="414"/>
      <point x="159" y="414" type="curve"/>
      <point x="159" y="264" type="line"/>
    </contour>
    <component base="period" xOffset="81"/>
  </outline>
</glyph>
<glyph name="at" format="1">
  <advance width="879"/>
  <unicode hex="0040"/>
  <outline>
    <contour>
      <point x="513" y="-116"/>
      <point x="591" y="-91"/>
      <point x="661" y="-47" type="curve"/>
      <point x="639" y="-14" type="line"/>
      <point x="574" y="-53"/>
      <point x="508" y="-75"/>
      <point x="427" y="-75" type="curve" smooth="yes"/>
      <point x="227" y="-75"/>
      <point x="86" y="72"/>
      <point x="86" y="261" type="curve" smooth="yes"/>
      <point x="86" y="465"/>
      <point x="251" y="634"/>
      <point x="461" y="634" type="curve" smooth="yes"/>
      <point x="658" y="634"/>
      <point x="790" y="503"/>
      <point x="790" y="334" type="curve" smooth="yes"/>
      <point x="790" y="222"/>
      <point x="743" y="163"/>
      <point x="691" y="163" type="curve" smooth="yes"/>
      <point x="662" y="163"/>
      <point x="644" y="181"/>
      <point x="644" y="211" type="curve" smooth="yes"/>
      <point x="644" y="255"/>
      <point x="660" y="306"/>
      <point x="694" y="484" type="curve"/>
      <point x="538" y="496" type="line"/>
      <point x="527" y="444" type="line"/>
      <point x="502" y="481"/>
      <point x="460" y="509"/>
      <point x="399" y="509" type="curve" smooth="yes"/>
      <point x="283" y="509"/>
      <point x="180" y="395"/>
      <point x="180" y="260" type="curve" smooth="yes"/>
      <point x="180" y="150"/>
      <point x="247" y="73"/>
      <point x="350" y="73" type="curve" smooth="yes"/>
      <point x="403" y="73"/>
      <point x="452" y="99"/>
      <point x="488" y="146" type="curve"/>
      <point x="507" y="102"/>
      <point x="546" y="71"/>
      <point x="618" y="71" type="curve" smooth="yes"/>
      <point x="717" y="71"/>
      <point x="836" y="154"/>
      <point x="836" y="334" type="curve" smooth="yes"/>
      <point x="836" y="516"/>
      <point x="683" y="676"/>
      <point x="463" y="676" type="curve" smooth="yes"/>
      <point x="232" y="676"/>
      <point x="43" y="486"/>
      <point x="43" y="260" type="curve" smooth="yes"/>
      <point x="43" y="50"/>
      <point x="204" y="-116"/>
      <point x="424" y="-116" type="curve" smooth="yes"/>
    </contour>
    <contour>
      <point x="369" y="202"/>
      <point x="341" y="228"/>
      <point x="341" y="273" type="curve" smooth="yes"/>
      <point x="341" y="328"/>
      <point x="379" y="380"/>
      <point x="438" y="380" type="curve" smooth="yes"/>
      <point x="478" y="380"/>
      <point x="503" y="349"/>
      <point x="499" y="304" type="curve" smooth="yes"/>
      <point x="494" y="244"/>
      <point x="456" y="202"/>
      <point x="409" y="202" type="curve" smooth="yes"/>
    </contour>
  </outline>
</glyph>
<glyph name="C" format="1">
  <advance width="706"/>
  <unicode hex="0043"/>
  <outline>
    <contour>
      <point x="518" y="-12"/>
      <point x="618" y="35"/>
      <point x="687" y="110" type="curve"/>
      <point x="545" y="234" type="line"/>
      <point x="512" y="192"/>
      <point x="463" y="164"/>
      <point x="408" y="164" type="curve" smooth="yes"/>
      <point x="314" y="164"/>
      <point x="234" y="246"/>
      <point x="234" y="344" type="curve" smooth="yes"/>
      <point x="234" y="441"/>
      <point x="314" y="523"/>
      <point x="408" y="523" type="curve" smooth="yes"/>
      <point x="462" y="523"/>
      <point x="512" y="495"/>
      <point x="544" y="453" type="curve"/>
      <point x="687" y="578" type="line"/>
      <point x="618" y="652"/>
      <point x="518" y="699"/>
      <point x="408" y="699" type="curve" smooth="yes"/>
      <point x="205" y="699"/>
      <point x="34" y="537"/>
      <point x="34" y="344" type="curve" smooth="yes"/>
      <point x="34" y="151"/>
      <point x="205" y="-12"/>
      <point x="408" y="-12" type="curve" smooth="yes"/>
    </contour>
    <contour>
      <point x="383" y="687" type="move" name="top"/>
    </contour>
    <contour>
      <point x="393" y="0" type="move" name="bottom"/>
    </contour>
  </outline>
</glyph>
<glyph name="D" format="1">
  <advance width="760"/>
  <unicode hex="0044"/>
  <outline>
    <contour>
      <point x="316" y="0" type="line" smooth="yes"/>
      <point x="556" y="0"/>
      <point x="726" y="143"/>
      <point x="726" y="344" type="curve" smooth="yes"/>
      <point x="726" y="545"/>
      <point x="556" y="687"/>
      <point x="316" y="687" type="curve" smooth="yes"/>
      <point x="60" y="687" type="line"/>
      <point x="60" y="0" type="line"/>
    </contour>
    <contour>
      <point x="254" y="511" type="line"/>
      <point x="348" y="511" type="line" smooth="yes"/>
      <point x="452" y="511"/>
      <point x="526" y="442"/>
      <point x="526" y="344" type="curve" smooth="yes"/>
      <point x="526" y="246"/>
      <point x="452" y="176"/>
      <point x="348" y="176" type="curve" smooth="yes"/>
      <point x="254" y="176" type="line"/>
    </contour>
    <contour>
      <point x="316" y="687" type="move" name="top"/>
    </contour>
  </outline>
</glyph>
<glyph name="E" format="1">
  <advance width="651"/>
  <unicode hex="0045"/>
  <outline>
    <contour>
      <point x="613" y="0" type="line"/>
      <point x="613" y="173" type="line"/>
      <point x="159" y="173" type="line"/>
      <point x="254" y="54" type="line"/>
      <point x="254" y="333" type="line"/>
      <point x="159" y="264" type="line"/>
      <point x="581" y="264" type="line"/>
      <point x="581" y="437" type="line"/>
      <point x="159" y="437" type="line"/>
      <point x="254" y="367" type="line"/>
      <point x="254" y="633" type="line"/>
      <point x="159" y="514" type="line"/>
      <point x="613" y="514" type="line"/>
      <point x="613" y="687" type="line"/>
      <point x="60" y="687" type="line"/>
      <point x="60" y="0" type="line"/>
    </contour>
    <contour>
      <point x="337" y="687" type="move" name="top"/>
    </contour>
    <contour>
      <point x="388" y="0" type="move" name="bottom"/>
    </contour>
  </outline>
</glyph>
<glyph name="I" format="1">
  <advance width="321"/>
  <unicode hex="0049"/>
  <outline>
    <contour>
      <point x="258" y="0" type="line"/>
      <point x="258" y="687" type="line"/>
      <point x="64" y="687" type="line"/>
      <point x="64" y="0" type="line"/>
    </contour>
    <contour>
      <point x="161" y="687" type="move" name="top"/>
    </contour>
    <contour>
      <point x="228" y="0" type="move" name="bottom"/>
    </contour>
  </outline>
</glyph>
<glyph name="K" format="1">
  <advance width="725"/>
  <unicode hex="004B"/>
  <outline>
    <contour>
      <point x="254" y="0" type="line"/>
      <point x="254" y="182" type="line"/>
      <point x="325" y="260" type="line"/>
      <point x="502" y="0" type="line"/>
      <point x="734" y="0" type="line"/>
      <point x="460" y="400" type="line"/>
      <point x="714" y="687" type="line"/>
      <point x="485" y="687" type="line"/>
      <point x="254" y="416" type="line"/>
      <point x="254" y="687" type="line"/>
      <point x="60" y="687" type="line"/>
      <point x="60" y="0" type="line"/>
    </contour>
    <contour>
      <point x="374" y="0" type="move" name="bottom"/>
    </contour>
  </outline>
</glyph>
<glyph name="L" format="1">
  <advance width="597"/>
  <unicode hex="004C"/>
  <outline>
    <contour>
      <point x="574" y="0" type="line"/>
      <point x="574" y="173" type="line"/>
      <point x="197" y="173" type="line"/>
      <point x="254" y="117" type="line"/>
      <point x="254" y="687" type="line"/>
      <point x="60" y="687" type="line"/>
      <point x="60" y="0" type="line"/>
    </contour>
    <contour>
      <point x="207" y="687" type="move" name="top"/>
    </contour>
  </outline>
</glyph>
<glyph name="N" format="1">
  <advance width="776"/>
  <unicode hex="004E"/>
  <outline>
    <contour>
      <point x="254" y="0" type="line"/>
      <point x="254" y="368" type="line"/>
      <point x="522" y="0" type="line"/>
      <point x="716" y="0" type="line"/>
      <point x="716" y="687" type="line"/>
      <point x="522" y="687" type="line"/>
      <point x="522" y="319" type="line"/>
      <point x="254" y="687" type="line"/>
      <point x="60" y="687" type="line"/>
      <point x="60" y="0" type="line"/>
    </contour>
    <contour>
      <point x="388" y="687" type="move" name="top"/>
    </contour>
    <contour>
      <point x="388" y="0" type="move" name="bottom"/>
    </contour>
  </outline>
</glyph>
<glyph name="P" format="1">
  <advance width="670"/>
  <unicode hex="0050"/>
  <outline>
    <contour>
      <point x="254" y="0" type="line"/>
      <point x="254" y="207" type="line"/>
      <point x="389" y="207" type="line" smooth="yes"/>
      <point x="543" y="207"/>
      <point x="652" y="306"/>
      <point x="652" y="447" type="curve" smooth="yes"/>
      <point x="652" y="588"/>
      <point x="543" y="687"/>
      <point x="389" y="687" type="curve" smooth="yes"/>
      <point x="60" y="687" type="line"/>
      <point x="60" y="0" type="line"/>
    </contour>
    <contour>
      <point x="254" y="511" type="line"/>
      <point x="373" y="511" type="line" smooth="yes"/>
      <point x="419" y="511"/>
      <point x="452" y="484"/>
      <point x="452" y="447" type="curve" smooth="yes"/>
      <point x="452" y="410"/>
      <point x="419" y="383"/>
      <point x="373" y="383" type="curve" smooth="yes"/>
      <point x="254" y="383" type="line"/>
    </contour>
  </outline>
</glyph>
<glyph name="X" format="1">
  <advance width="721"/>
  <unicode hex="0058"/>
  <outline>
    <contour>
      <point x="4" y="687" type="line"/>
      <point x="231" y="687" type="line"/>
      <point x="717" y="0" type="line"/>
      <point x="490" y="0" type="line"/>
    </contour>
    <contour>
      <point x="494" y="687" type="line"/>
      <point x="717" y="687" type="line"/>
      <point x="227" y="0" type="line"/>
      <point x="4" y="0" type="line"/>
    </contour>
  </outline>
</glyph>
<glyph name="Y" format="1">
  <advance width="709"/>
  <unicode hex="0059"/>
  <outline>
    <contour>
      <point x="452" y="0" type="line"/>
      <point x="452" y="226" type="line"/>
      <point x="715" y="687" type="line"/>
      <point x="502" y="687" type="line"/>
      <point x="355" y="408" type="line"/>
      <point x="216" y="687" type="line"/>
      <point x="-6" y="687" type="line"/>
      <point x="258" y="226" type="line"/>
      <point x="258" y="0" type="line"/>
    </contour>
    <contour>
      <point x="355" y="687" type="move" name="top"/>
    </contour>
  </outline>
</glyph>
<glyph name="bracketleft" format="1">
  <advance width="398"/>
  <unicode hex="005B"/>
  <outline>
    <contour>
      <point x="359" y="-160" type="line"/>
      <point x="359" y="-39" type="line"/>
      <point x="211" y="-39" type="line"/>
      <point x="211" y="568" type="line"/>
      <point x="359" y="568" type="line"/>
      <point x="359" y="689" type="line"/>
      <point x="64" y="689" type="line"/>
      <point x="64" y="-160" type="line"/>
    </contour>
  </outline>
</glyph>
<glyph name="asciicircum" format="1">
  <advance width="486"/>
  <unicode hex="005E"/>
  <outline>
    <contour>
      <point x="165" y="413" type="line"/>
      <point x="242" y="573" type="line"/>
      <point x="320" y="413" type="line"/>
      <point x="450" y="413" type="line"/>
      <point x="308" y="687" type="line"/>
      <point x="179" y="687" type="line"/>
      <point x="36" y="413" type="line"/>
    </contour>
  </outline>
</glyph>
<glyph name="a" format="1">
  <advance width="587"/>
  <unicode hex="0061"/>
  <outline>
    <contour>
      <point x="540" y="0" type="line"/>
      <point x="540" y="305" type="line" smooth="yes"/>
      <point x="540" y="446"/>
      <point x="432" y="529"/>
      <point x="301" y="529" type="curve" smooth="yes"/>
      <point x="214" y="529"/>
      <point x="137" y="504"/>
      <point x="65" y="468" type="curve"/>
      <point x="126" y="347" type="line"/>
      <point x="164" y="366"/>
      <point x="204" y="376"/>
      <point x="249" y="376" type="curve" smooth="yes"/>
      <point x="316" y="376"/>
      <point x="355" y="350"/>
      <point x="355" y="305" type="curve" smooth="yes"/>
      <point x="355" y="0" type="line"/>
    </contour>
    <contour>
      <point x="302" y="-12"/>
      <point x="381" y="34"/>
      <point x="401" y="113" type="curve"/>
      <point x="355" y="163" type="line"/>
      <point x="351" y="133"/>
      <point x="316" y="112"/>
      <point x="269" y="112" type="curve" smooth="yes"/>
      <point x="234" y="112"/>
      <point x="210" y="131"/>
      <point x="210" y="158" type="curve" smooth="yes"/>
      <point x="210" y="187"/>
      <point x="236" y="208"/>
      <point x="273" y="208" type="curve" smooth="yes"/>
      <point x="303" y="208"/>
      <point x="333" y="201"/>
      <point x="356" y="188" type="curve"/>
      <point x="407" y="274" type="line"/>
      <point x="356" y="308"/>
      <point x="296" y="325"/>
      <point x="246" y="325" type="curve" smooth="yes"/>
      <point x="121" y="325"/>
      <point x="23" y="254"/>
      <point x="23" y="153" type="curve" smooth="yes"/>
      <point x="23" y="56"/>
      <point x="111" y="-12"/>
      <point x="222" y="-12" type="curve" smooth="yes"/>
    </contour>
    <contour>
      <point x="305" y="517" type="move" name="top"/>
    </contour>
    <contour>
      <point x="540" y="0" type="move" name="bottom"/>
    </contour>
  </outline>
</glyph>
<glyph name="c" format="1">
  <advance width="552"/>
  <unicode hex="0063"/>
  <outline>
    <contour>
      <point x="413" y="-12"/>
      <point x="486" y="27"/>
      <point x="538" y="87" type="curve"/>
      <point x="411" y="189" type="line"/>
      <point x="390" y="165"/>
      <point x="352" y="148"/>
      <point x="319" y="148" type="curve" smooth="yes"/>
      <point x="260" y="148"/>
      <point x="211" y="199"/>
      <point x="211" y="260" type="curve" smooth="yes"/>
      <point x="211" y="319"/>
      <point x="260" y="369"/>
      <point x="318" y="369" type="curve" smooth="yes"/>
      <point x="351" y="369"/>
      <point x="388" y="352"/>
      <point x="408" y="329" type="curve"/>
      <point x="535" y="433" type="line"/>
      <point x="485" y="491"/>
      <point x="412" y="529"/>
      <point x="320" y="529" type="curve" smooth="yes"/>
      <point x="161" y="529"/>
      <point x="27" y="406"/>
      <point x="27" y="259" type="curve" smooth="yes"/>
      <point x="27" y="112"/>
      <point x="160" y="-12"/>
      <point x="317" y="-12" type="curve" smooth="yes"/>
    </contour>
    <contour>
      <point x="298" y="517" type="move" name="top"/>
    </contour>
    <contour>
      <point x="308" y="0" type="move" name="bottom"/>
    </contour>
  </outline>
</glyph>
<glyph name="i" format="1">
  <advance width="304"/>
  <unicode hex="0069"/>
  <outline>
    <contour>
      <point x="207" y="572"/>
      <point x="251" y="618"/>
      <point x="251" y="672" type="curve" smooth="yes"/>
      <point x="251" y="724"/>
      <point x="207" y="770"/>
      <point x="153" y="770" type="curve" smooth="yes"/>
      <point x="97" y="770"/>
      <point x="53" y="724"/>
      <point x="53" y="672" type="curve" smooth="yes"/>
      <point x="53" y="618"/>
      <point x="97" y="572"/>
      <point x="153" y="572" type="curve" smooth="yes"/>
    </contour>
    <component base="idotless"/>
    <contour>
      <point x="248" y="0" type="move" name="onogek"/>
    </contour>
    <contour>
      <point x="152" y="0" type="move" name="bottom"/>
    </contour>
  </outline>
</glyph>
<glyph name="l" format="1">
  <advance width="303"/>
  <unicode hex="006C"/>
  <outline>
    <component base="ascender" xOffset="4"/>
    <contour>
      <point x="204" y="699" type="move" name="top"/>
    </contour>
    <contour>
      <point x="248" y="0" type="move" name="bottom"/>
    </contour>
  </outline>
</glyph>
<glyph name="m" format="1">
  <advance width="952"/>
  <unicode hex="006D"/>
  <outline>
    <contour>
      <point x="904" y="-1" type="line"/>
      <point x="904" y="329" type="line" smooth="yes"/>
      <point x="904" y="446"/>
      <point x="816" y="529"/>
      <point x="708" y="529" type="curve" smooth="yes"/>
      <point x="604" y="529"/>
      <point x="527" y="468"/>
      <point x="522" y="381" type="curve"/>
      <point x="574" y="300" type="line"/>
      <point x="574" y="340"/>
      <point x="604" y="369"/>
      <point x="647" y="369" type="curve" smooth="yes"/>
      <point x="690" y="369"/>
      <point x="720" y="338"/>
      <point x="720" y="294" type="curve" smooth="yes"/>
      <point x="720" y="-1" type="line"/>
    </contour>
    <contour>
      <point x="574" y="-1" type="line"/>
      <point x="574" y="329" type="line" smooth="yes"/>
      <point x="574" y="446"/>
      <point x="486" y="529"/>
      <point x="378" y="529" type="curve" smooth="yes"/>
      <point x="289" y="529"/>
      <point x="226" y="467"/>
      <point x="226" y="379" type="curve"/>
      <point x="244" y="300" type="line"/>
      <point x="244" y="340"/>
      <point x="274" y="369"/>
      <point x="317" y="369" type="curve" smooth="yes"/>
      <point x="360" y="369"/>
      <point x="390" y="338"/>
      <point x="390" y="294" type="curve" smooth="yes"/>
      <point x="390" y="-1" type="line"/>
    </contour>
    <component base="idotless" xOffset="-4"/>
  </outline>
</glyph>
<glyph name="o" format="1">
  <advance width="636"/>
  <unicode hex="006F"/>
  <outline>
    <contour>
      <point x="477" y="-12"/>
      <point x="610" y="112"/>
      <point x="610" y="259" type="curve" smooth="yes"/>
      <point x="610" y="406"/>
      <point x="477" y="529"/>
      <point x="319" y="529" type="curve" smooth="yes"/>
      <point x="160" y="529"/>
      <point x="27" y="406"/>
      <point x="27" y="259" type="curve" smooth="yes"/>
      <point x="27" y="112"/>
      <point x="160" y="-12"/>
      <point x="319" y="-12" type="curve" smooth="yes"/>
    </contour>
    <contour>
      <point x="258" y="148"/>
      <point x="207" y="199"/>
      <point x="207" y="259" type="curve" smooth="yes"/>
      <point x="207" y="319"/>
      <point x="258" y="369"/>
      <point x="319" y="369" type="curve" smooth="yes"/>
      <point x="379" y="369"/>
      <point x="430" y="319"/>
      <point x="430" y="259" type="curve" smooth="yes"/>
      <point x="430" y="199"/>
      <point x="379" y="148"/>
      <point x="319" y="148" type="curve" smooth="yes"/>
    </contour>
    <contour>
      <point x="319" y="517" type="move" name="top"/>
    </contour>
  </outline>
</glyph>
<glyph name="u" format="1">
  <advance width="628"/>
  <unicode hex="0075"/>
  <outline>
    <component base="n" xOffset="628" yOffset="517" xScale="-1" yScale="-1"/>
    <contour>
      <point x="312" y="517" type="move" name="top"/>
    </contour>
    <contour>
      <point x="577" y="0" type="move" name="bottom"/>
    </contour>
  </outline>
</glyph>
<glyph name="v" format="1">
  <advance width="635"/>
  <unicode hex="0076"/>
  <outline>
    <contour>
      <point x="408" y="0" type="line"/>
      <point x="631" y="517" type="line"/>
      <point x="433" y="517" type="line"/>
      <point x="319" y="221" type="line"/>
      <point x="202" y="517" type="line"/>
      <point x="4" y="517" type="line"/>
      <point x="230" y="0" type="line"/>
    </contour>
  </outline>
</glyph>
<glyph name="z" format="1">
  <advance width="544"/>
  <unicode hex="007A"/>
  <outline>
    <contour>
      <point x="514" y="0" type="line"/>
      <point x="514" y="160" type="line"/>
      <point x="282" y="160" type="line"/>
      <point x="511" y="384" type="line"/>
      <point x="512" y="517" type="line"/>
      <point x="40" y="517" type="line"/>
      <point x="40" y="357" type="line"/>
      <point x="262" y="357" type="line"/>
      <point x="33" y="133" type="line"/>
      <point x="33" y="0" type="line"/>
    </contour>
    <contour>
      <point x="279" y="517" type="move" name="top"/>
    </contour>
  </outline>
</glyph>
<glyph name="sterling" format="1">
  <advance width="677"/>
  <unicode hex="00A3"/>
  <outline>
    <contour>
      <point x="654" y="0" type="line"/>
      <point x="654" y="143" type="line"/>
      <point x="277" y="143" type="line"/>
      <point x="334" y="87" type="line"/>
      <point x="334" y="443" type="line" smooth="yes"/>
      <point x="334" y="490"/>
      <point x="368" y="523"/>
      <point x="415" y="523" type="curve" smooth="yes"/>
      <point x="450" y="523"/>
      <point x="488" y="498"/>
      <point x="507" y="463" type="curve"/>
      <point x="632" y="585" type="line"/>
      <point x="583" y="652"/>
      <point x="482" y="699"/>
      <point x="389" y="699" type="curve" smooth="yes"/>
      <point x="243" y="699"/>
      <point x="140" y="601"/>
      <point x="140" y="463" type="curve" smooth="yes"/>
      <point x="140" y="143" type="line"/>
      <point x="40" y="76" type="line"/>
      <point x="40" y="0" type="line"/>
    </contour>
    <contour>
      <point x="471" y="250" type="line"/>
      <point x="471" y="337" type="line"/>
      <point x="66" y="337" type="line"/>
      <point x="66" y="250" type="line"/>
    </contour>
  </outline>
</glyph>
<glyph name="paragraph" format="1">
  <advance width="757"/>
  <unicode hex="00B6"/>
  <outline>
    <contour>
      <point x="407" y="-50" type="line"/>
      <point x="407" y="556" type="line"/>
      <point x="530" y="556" type="line"/>
      <point x="530" y="-50" type="line"/>
      <point x="667" y="-50" type="line"/>
      <point x="667" y="684" type="line"/>
      <point x="257" y="684" type="line"/>
      <point x="120" y="684"/>
      <point x="25" y="601"/>
      <point x="25" y="477" type="curve" smooth="yes"/>
      <point x="25" y="354"/>
      <point x="118" y="272"/>
      <point x="270" y="272" type="curve"/>
      <point x="270" y="-50" type="line"/>
    </contour>
  </outline>
</glyph>
<glyph name="cedilla" format="1">
  <advance width="340"/>
  <unicode hex="00B8"/>
  <outline>
    <contour>
      <point x="229" y="-200"/>
      <point x="277" y="-167"/>
      <point x="277" y="-111" type="curve" smooth="yes"/>
      <point x="277" y="-71"/>
      <point x="245" y="-42"/>
      <point x="199" y="-42" type="curve" smooth="yes"/>
      <point x="179" y="-42"/>
      <point x="139" y="-50"/>
      <point x="117" y="-62" type="curve"/>
      <point x="196" y="-62" type="line"/>
      <point x="227" y="11" type="line"/>
      <point x="138" y="11" type="line"/>
      <point x="107" y="-62" type="line"/>
      <point x="133" y="-86" type="line"/>
      <point x="141" y="-81"/>
      <point x="151" y="-78"/>
      <point x="160" y="-78" type="curve" smooth="yes"/>
      <point x="177" y="-78"/>
      <point x="188" y="-86"/>
      <point x="188" y="-100" type="curve" smooth="yes"/>
      <point x="188" y="-116"/>
      <point x="171" y="-125"/>
      <point x="152" y="-125" type="curve" smooth="yes"/>
      <point x="132" y="-125"/>
      <point x="111" y="-116"/>
      <point x="94" y="-102" type="curve"/>
      <point x="63" y="-170" type="line"/>
      <point x="86" y="-187"/>
      <point x="124" y="-200"/>
      <point x="162" y="-200" type="curve" smooth="yes"/>
    </contour>
    <contour>
      <point x="170" y="0" type="move" name="_bottom"/>
    </contour>
  </outline>
</glyph>
<glyph name="Thorn" format="1">
  <advance width="670"/>
  <unicode hex="00DE"/>
  <outline>
    <contour>
      <point x="254" y="0" type="line"/>
      <point x="254" y="105" type="line"/>
      <point x="389" y="105" type="line" smooth="yes"/>
      <point x="543" y="105"/>
      <point x="652" y="204"/>
      <point x="652" y="345" type="curve" smooth="yes"/>
      <point x="652" y="486"/>
      <point x="543" y="585"/>
      <point x="389" y="585" type="curve" smooth="yes"/>
      <point x="249" y="585" type="line"/>
      <point x="249" y="687" type="line"/>
      <point x="60" y="687" type="line"/>
      <point x="60" y="0" type="line"/>
    </contour>
    <contour>
      <point x="254" y="409" type="line"/>
      <point x="373" y="409" type="line" smooth="yes"/>
      <point x="419" y="409"/>
      <point x="452" y="382"/>
      <point x="452" y="345" type="curve" smooth="yes"/>
      <point x="452" y="308"/>
      <point x="419" y="281"/>
      <point x="373" y="281" type="curve" smooth="yes"/>
      <point x="254" y="281" type="line"/>
    </contour>
  </outline>
</glyph>
<glyph name="thorn" format="1">
  <advance width="674"/>
  <unicode hex="00FE"/>
  <outline>
    <contour>
      <point x="244" y="-172" type="line"/>
      <point x="244" y="699" type="line"/>
      <point x="51" y="699" type="line"/>
      <point x="51" y="-172" type="line"/>
    </contour>
    <component base="lowercase_loop" xOffset="49"/>
  </outline>
</glyph>
<glyph name="OE" format="1">
  <advance width="1046"/>
  <unicode hex="0152"/>
  <outline>
    <contour>
      <point x="575" y="0" type="line"/>
      <point x="575" y="176" type="line"/>
      <point x="408" y="176" type="line" smooth="yes"/>
      <point x="314" y="176"/>
      <point x="234" y="246"/>
      <point x="234" y="344" type="curve" smooth="yes"/>
      <point x="234" y="441"/>
      <point x="314" y="511"/>
      <point x="408" y="511" type="curve" smooth="yes"/>
      <point x="575" y="511" type="line"/>
      <point x="575" y="687" type="line"/>
      <point x="408" y="687" type="line" smooth="yes"/>
      <point x="205" y="687"/>
      <point x="34" y="537"/>
      <point x="34" y="344" type="curve" smooth="yes"/>
      <point x="34" y="151"/>
      <point x="205" y="0"/>
      <point x="408" y="0" type="curve" smooth="yes"/>
    </contour>
    <component base="E" xOffset="395"/>
  </outline>
</glyph>
<glyph name="ring" format="1">
  <advance width="368"/>
  <unicode hex="02DA"/>
  <outline>
    <contour>
      <point x="251" y="575"/>
      <point x="305" y="629"/>
      <point x="305" y="696" type="curve" smooth="yes"/>
      <point x="305" y="763"/>
      <point x="251" y="817"/>
      <point x="184" y="817" type="curve" smooth="yes"/>
      <point x="118" y="817"/>
      <point x="63" y="763"/>
      <point x="63" y="696" type="curve" smooth="yes"/>
      <point x="63" y="629"/>
      <point x="118" y="575"/>
      <point x="184" y="575" type="curve" smooth="yes"/>
    </contour>
    <contour>
      <point x="157" y="647"/>
      <point x="135" y="669"/>
      <point x="135" y="696" type="curve" smooth="yes"/>
      <point x="135" y="723"/>
      <point x="157" y="745"/>
      <point x="184" y="745" type="curve" smooth="yes"/>
      <point x="211" y="745"/>
      <point x="233" y="723"/>
      <point x="233" y="696" type="curve" smooth="yes"/>
      <point x="233" y="669"/>
      <point x="211" y="647"/>
      <point x="184" y="647" type="curve" smooth="yes"/>
    </contour>
    <contour>
      <point x="184" y="704" type="move" name="top"/>
    </contour>
    <contour>
      <point x="184" y="517" type="move" name="_top"/>
    </contour>
  </outline>
</glyph>
<glyph name="ogonek" format="1">
  <advance width="331"/>
  <unicode hex="02DB"/>
  <outline>
    <contour>
      <point x="214" y="-173"/>
      <point x="246" y="-158"/>
      <point x="268" y="-138" type="curve"/>
      <point x="246" y="-56" type="line"/>
      <point x="239" y="-62"/>
      <point x="227" y="-66"/>
      <point x="216" y="-66" type="curve" smooth="yes"/>
      <point x="193" y="-66"/>
      <point x="177" y="-57"/>
      <point x="177" y="-36" type="curve" smooth="yes"/>
      <point x="177" y="-15"/>
      <point x="192" y="0"/>
      <point x="215" y="0" type="curve"/>
      <point x="114" y="38" type="line"/>
      <point x="81" y="15"/>
      <point x="63" y="-16"/>
      <point x="63" y="-59" type="curve" smooth="yes"/>
      <point x="63" y="-129"/>
      <point x="109" y="-173"/>
      <point x="175" y="-173" type="curve" smooth="yes"/>
    </contour>
    <contour>
      <point x="215" y="0" type="move" name="_bottom"/>
    </contour>
  </outline>
</glyph>
<glyph name="tilde" format="1">
  <advance width="439"/>
  <unicode hex="02DC"/>
  <outline>
    <contour>
      <point x="362" y="571"/>
      <point x="400" y="617"/>
      <point x="410" y="712" type="curve"/>
      <point x="320" y="725" type="line"/>
      <point x="314" y="697"/>
      <point x="303" y="683"/>
      <point x="283" y="683" type="curve" smooth="yes"/>
      <point x="257" y="683"/>
      <point x="204" y="724"/>
      <point x="150" y="724" type="curve" smooth="yes"/>
      <point x="77" y="724"/>
      <point x="40" y="678"/>
      <point x="29" y="583" type="curve"/>
      <point x="119" y="570" type="line"/>
      <point x="125" y="599"/>
      <point x="136" y="612"/>
      <point x="156" y="612" type="curve" smooth="yes"/>
      <point x="183" y="612"/>
      <point x="234" y="571"/>
      <point x="289" y="571" type="curve" smooth="yes"/>
    </contour>
    <contour>
      <point x="220" y="704" type="move" name="top"/>
    </contour>
    <contour>
      <point x="220" y="517" type="move" name="_top"/>
    </contour>
  </outline>
</glyph>
<glyph name="hungarumlaut" format="1">
  <advance width="662"/>
  <unicode hex="02DD"/>
  <outline>
    <contour>
      <point x="189" y="574" type="line"/>
      <point x="341" y="710" type="line"/>
      <point x="175" y="738" type="line"/>
      <point x="63" y="574" type="line"/>
    </contour>
    <contour>
      <point x="447" y="574" type="line"/>
      <point x="599" y="710" type="line"/>
      <point x="433" y="738" type="line"/>
      <point x="321" y="574" type="line"/>
    </contour>
    <contour>
      <point x="331" y="704" type="move" name="top"/>
    </contour>
    <contour>
      <point x="331" y="517" type="move" name="_top"/>
    </contour>
  </outline>
</glyph>
<glyph name="commaaccentcomb" format="1">
  <advance width="312"/>
  <unicode hex="0326"/>
  <outline>
    <contour>
      <point x="207" y="-252"/>
      <point x="241" y="-192"/>
      <point x="241" y="-137" type="curve" smooth="yes"/>
      <point x="241" y="-71"/>
      <point x="205" y="-23"/>
      <point x="154" y="-23" type="curve" smooth="yes"/>
      <point x="108" y="-23"/>
      <point x="70" y="-62"/>
      <point x="70" y="-110" type="curve" smooth="yes"/>
      <point x="70" y="-156"/>
      <point x="107" y="-195"/>
      <point x="151" y="-195" type="curve"/>
      <point x="145" y="-219"/>
      <point x="127" y="-245"/>
      <point x="102" y="-265" type="curve"/>
      <point x="148" y="-301" type="line"/>
    </contour>
    <contour>
      <point x="154" y="0" type="move" name="_bottom"/>
    </contour>
    <contour>
      <point x="154" y="517" type="move" name="_top"/>
    </contour>
  </outline>
</glyph>
<glyph name="bullet" format="1">
  <advance width="429"/>
  <unicode hex="2022"/>
  <outline>
    <contour>
      <point x="298" y="148"/>
      <point x="365" y="215"/>
      <point x="365" y="298" type="curve" smooth="yes"/>
      <point x="365" y="380"/>
      <point x="298" y="447"/>
      <point x="216" y="447" type="curve" smooth="yes"/>
      <point x="133" y="447"/>
      <point x="66" y="380"/>
      <point x="66" y="298" type="curve" smooth="yes"/>
      <point x="66" y="215"/>
      <point x="133" y="148"/>
      <point x="216" y="148" type="curve" smooth="yes"/>
    </contour>
  </outline>
</glyph>
<glyph name="euro" format="1">
  <advance width="706"/>
  <unicode hex="20AC"/>
  <outline>
    <contour>
      <point x="455" y="247" type="line"/>
      <point x="455" y="324" type="line"/>
      <point x="-11" y="324" type="line"/>
      <point x="-11" y="247" type="line"/>
    </contour>
    <contour>
      <point x="455" y="372" type="line"/>
      <point x="455" y="449" type="line"/>
      <point x="-11" y="449" type="line"/>
      <point x="-11" y="372" type="line"/>
    </contour>
    <component base="C"/>
  </outline>
</glyph>
<glyph name="minus" format="1">
  <advance width="609"/>
  <unicode hex="2212"/>
  <outline>
    <contour>
      <point x="554" y="259" type="line"/>
      <point x="554" y="408" type="line"/>
      <point x="55" y="408" type="line"/>
      <point x="55" y="259" type="line"/>
    </contour>
  </outline>
</glyph>
<glyph name="a.alt" format="1">
  <advance width="674"/>
  <outline>
    <contour>
      <point x="623" y="0" type="line"/>
      <point x="623" y="517" type="line"/>
      <point x="430" y="517" type="line"/>
      <point x="430" y="0" type="line"/>
    </contour>
    <component base="lowercase_loop" xOffset="625" xScale="-1"/>
    <contour>
      <point x="345" y="517" type="move" name="top"/>
    </contour>
    <contour>
      <point x="623" y="0" type="move" name="bottom"/>
    </contour>
  </outline>
</glyph>
<glyph name="descender" format="1">
  <advance width="674"/>
  <outline>
    <contour>
      <point x="244" y="-172" type="line"/>
      <point x="244" y="517" type="line"/>
      <point x="51" y="517" type="line"/>
      <point x="51" y="-172" type="line"/>
    </contour>
  </outline>
</glyph>
<glyph name="lowercase_loop" format="1">
  <advance width="625"/>
  <outline>
    <contour>
      <point x="499" y="-12"/>
      <point x="597" y="100"/>
      <point x="597" y="259" type="curve" smooth="yes"/>
      <point x="597" y="417"/>
      <point x="499" y="529"/>
      <point x="360" y="529" type="curve" smooth="yes"/>
      <point x="224" y="529"/>
      <point x="127" y="417"/>
      <point x="127" y="259" type="curve" smooth="yes"/>
      <point x="127" y="100"/>
      <point x="224" y="-12"/>
      <point x="360" y="-12" type="curve" smooth="yes"/>
    </contour>
    <contour>
      <point x="238" y="148"/>
      <point x="195" y="194"/>
      <point x="195" y="259" type="curve" smooth="yes"/>
      <point x="195" y="323"/>
      <point x="238" y="369"/>
      <point x="299" y="369" type="curve" smooth="yes"/>
      <point x="366" y="369"/>
      <point x="413" y="323"/>
      <point x="413" y="259" type="curve" smooth="yes"/>
      <point x="413" y="194"/>
      <point x="366" y="148"/>
      <point x="299" y="148" type="curve" smooth="yes"/>
    </contour>
  </outline>
</glyph>
<glyph name="lowercase_loop_reverse" format="1">
  <advance width="625"/>
  <outline>
    <contour>
      <point x="500" y="-12"/>
      <point x="597" y="100"/>
      <point x="597" y="259" type="curve" smooth="yes"/>
      <point x="597" y="417"/>
      <point x="500" y="529"/>
      <point x="364" y="529" type="curve" smooth="yes"/>
      <point x="225" y="529"/>
      <point x="127" y="417"/>
      <point x="127" y="259" type="curve" smooth="yes"/>
      <point x="127" y="100"/>
      <point x="225" y="-12"/>
      <point x="364" y="-12" type="curve" smooth="yes"/>
    </contour>
    <contour>
      <point x="358" y="148"/>
      <point x="311" y="194"/>
      <point x="311" y="259" type="curve" smooth="yes"/>
      <point x="311" y="323"/>
      <point x="358" y="369"/>
      <point x="425" y="369" type="curve" smooth="yes"/>
      <point x="486" y="369"/>
      <point x="529" y="323"/>
      <point x="529" y="259" type="curve" smooth="yes"/>
      <point x="529" y="194"/>
      <point x="486" y="148"/>
      <point x="425" y="148" type="curve" smooth="yes"/>
    </contour>
  </outline>
</glyph>
